<svg xmlns:xlink="http://www.w3.org/1999/xlink" xmlns="http://www.w3.org/2000/svg" width="20" height="20" viewBox="0 0 20 20" fill="none"><path d="M10 1.3C11.7207 1.3 13.4028 1.81025 14.8335 2.76621C16.2642 3.72218 17.3793 5.08094 18.0378 6.67065C18.6962 8.26037 18.8685 10.0097 18.5328 11.6973C18.1971 13.3849 17.3685 14.9351 16.1518 16.1518C14.9351 17.3685 13.3849 18.1971 11.6973 18.5328C10.0097 18.8685 8.26038 18.6962 6.67066 18.0378C5.08094 17.3793 3.72219 16.2642 2.76622 14.8335C1.81025 13.4028 1.3 11.7207 1.3 10C1.30265 7.69343 2.22011 5.48209 3.8511 3.85109C5.48209 2.2201 7.69343 1.30265 10 1.3ZM10 0C8.02219 0 6.08879 0.58649 4.4443 1.6853C2.79981 2.78412 1.51809 4.3459 0.761209 6.17317C0.00433284 8.00043 -0.193701 10.0111 0.192152 11.9509C0.578004 13.8907 1.53041 15.6725 2.92894 17.0711C4.32746 18.4696 6.10929 19.422 8.0491 19.8079C9.98891 20.1937 11.9996 19.9957 13.8268 19.2388C15.6541 18.4819 17.2159 17.2002 18.3147 15.5557C19.4135 13.9112 20 11.9778 20 10C20 7.34784 18.9464 4.8043 17.0711 2.92893C15.1957 1.05357 12.6522 0 10 0V0Z" fill="#E6E6E6"></path><path d="M11.837 10.578C12.42 10.1846 12.8612 9.6145 13.0959 8.95155C13.3305 8.28861 13.3461 7.56785 13.1404 6.89535C12.9348 6.22286 12.5186 5.63415 11.9533 5.21588C11.388 4.7976 10.7033 4.57185 10 4.57185C9.2968 4.57185 8.61213 4.7976 8.0468 5.21588C7.48147 5.63415 7.06534 6.22286 6.85965 6.89535C6.65397 7.56785 6.66959 8.28861 6.90423 8.95155C7.13887 9.6145 7.58012 10.1846 8.16305 10.578C7.17733 10.9502 6.32794 11.6131 5.72738 12.4788C5.12683 13.3446 4.80344 14.3724 4.80005 15.426H6.10005C6.10005 14.3917 6.51094 13.3997 7.24233 12.6683C7.97372 11.9369 8.9657 11.526 10 11.526C11.0344 11.526 12.0264 11.9369 12.7578 12.6683C13.4892 13.3997 13.9 14.3917 13.9 15.426H15.2C15.1967 14.3724 14.8733 13.3446 14.2727 12.4788C13.6722 11.6131 12.8228 10.9502 11.837 10.578ZM10 5.873C10.3924 5.873 10.776 5.98936 11.1023 6.20737C11.4286 6.42537 11.6829 6.73523 11.833 7.09776C11.9832 7.46029 12.0225 7.8592 11.9459 8.24406C11.8694 8.62892 11.6804 8.98243 11.4029 9.2599C11.1255 9.53737 10.772 9.72633 10.3871 9.80288C10.0022 9.87943 9.60333 9.84014 9.2408 9.68998C8.87828 9.53981 8.56842 9.28552 8.35041 8.95925C8.13241 8.63299 8.01605 8.2494 8.01605 7.857C8.01658 7.33097 8.22578 6.82664 8.59773 6.45469C8.96969 6.08273 9.47402 5.87353 10 5.873Z" fill="#E6E6E6"></path></svg>