<svg xmlns:xlink="http://www.w3.org/1999/xlink" xmlns="http://www.w3.org/2000/svg" width="20" height="22" viewBox="0 0 20 22" fill="none"><path d="M19.321 10.217C19.2356 10.2169 19.1509 10.2336 19.072 10.2662C18.993 10.2988 18.9212 10.3467 18.8608 10.407C18.8003 10.4674 18.7523 10.5391 18.7196 10.618C18.6869 10.697 18.67 10.7816 18.67 10.867C18.6699 12.6932 18.1034 14.4743 17.0486 15.9651C15.9938 17.4558 14.5027 18.5828 12.7807 19.1907C11.0587 19.7986 9.19055 19.8575 7.43366 19.3593C5.67677 18.8611 4.11761 17.8303 2.97102 16.409L4.14302 16.368L0.650024 13.211L0.825024 17.911L1.72502 16.906C2.99259 18.618 4.76823 19.8861 6.79883 20.5296C8.82944 21.1732 11.0114 21.1593 13.0336 20.49C15.0559 19.8207 16.8152 18.5301 18.0609 16.8021C19.3066 15.0742 19.9751 12.9971 19.971 10.867C19.971 10.6946 19.9025 10.5293 19.7806 10.4074C19.6587 10.2855 19.4934 10.217 19.321 10.217Z" fill="#FFFFFF"></path><path d="M19.32 8.787L19.145 4.087L18.245 5.092C16.9773 3.3804 15.2016 2.11263 13.1711 1.46937C11.1406 0.826102 8.95883 0.840172 6.93679 1.50957C4.91474 2.17897 3.15557 3.46954 1.91 5.19734C0.664434 6.92515 -0.00398122 9.00204 1.78403e-05 11.132C1.78439e-05 11.3044 0.0684998 11.4697 0.190398 11.5916C0.312297 11.7135 0.477627 11.782 0.650018 11.782C0.822409 11.782 0.987739 11.7135 1.10964 11.5916C1.23154 11.4697 1.30002 11.3044 1.30002 11.132C1.29935 9.30532 1.8654 7.52343 2.92013 6.03202C3.97486 4.54061 5.46631 3.41315 7.18883 2.80512C8.91134 2.19708 10.7801 2.13842 12.5373 2.63721C14.2946 3.136 15.8538 4.16769 17 5.59L15.828 5.63L19.32 8.787Z" fill="#FFFFFF"></path><path d="M10.364 5.445V6.078C10.7332 6.10936 11.0956 6.196 11.439 6.335C11.7415 6.46719 12.0092 6.66779 12.221 6.921C12.3866 7.10509 12.5241 7.31267 12.629 7.537C12.7175 7.71791 12.7663 7.91568 12.772 8.117C12.7726 8.21151 12.754 8.30516 12.7174 8.3923C12.6808 8.47943 12.6269 8.55825 12.559 8.624C12.4913 8.69293 12.4103 8.74735 12.3209 8.78397C12.2315 8.82059 12.1356 8.83863 12.039 8.837C11.8605 8.84264 11.686 8.78251 11.5489 8.66803C11.4117 8.55355 11.3214 8.3927 11.295 8.216C11.2407 7.98564 11.1257 7.77402 10.962 7.6031C10.7983 7.43218 10.5918 7.30819 10.364 7.244V9.681C10.848 9.814 11.233 9.935 11.522 10.044C11.8061 10.1522 12.0671 10.3134 12.291 10.519C12.5321 10.7319 12.7236 10.9951 12.852 11.29C12.9861 11.5996 13.0542 11.9337 13.052 12.271C13.0544 12.7077 12.9467 13.1379 12.739 13.522C12.5236 13.9173 12.2045 14.2465 11.816 14.474C11.3744 14.731 10.879 14.8816 10.369 14.914V16.372C10.3775 16.5414 10.3544 16.711 10.301 16.872C10.2748 16.9273 10.2314 16.9726 10.1774 17.0013C10.1233 17.0299 10.0615 17.0403 10.001 17.031C9.94408 17.0378 9.88637 17.0294 9.8337 17.0068C9.78103 16.9841 9.73526 16.948 9.70101 16.902C9.63541 16.7794 9.60594 16.6407 9.61601 16.502V14.925C9.20077 14.8858 8.7951 14.777 8.41601 14.603C8.09539 14.454 7.80542 14.2465 7.56101 13.991C7.34748 13.7696 7.17571 13.5115 7.05401 13.229C6.94868 12.9837 6.89294 12.72 6.89001 12.453C6.8907 12.358 6.91054 12.2642 6.94834 12.1771C6.98614 12.09 7.04113 12.0114 7.11001 11.946C7.18051 11.8722 7.26569 11.8139 7.36008 11.775C7.45446 11.736 7.55595 11.7173 7.65801 11.72C7.81539 11.7149 7.9706 11.7578 8.10301 11.843C8.22441 11.9258 8.31344 12.0481 8.35501 12.189C8.43358 12.4387 8.52537 12.6841 8.63001 12.924C8.71472 13.1023 8.83562 13.261 8.98501 13.39C9.16784 13.5438 9.38329 13.6539 9.61501 13.712V10.988C9.16265 10.8698 8.7229 10.7077 8.30201 10.504C7.95523 10.331 7.66028 10.0696 7.44701 9.746C7.21418 9.36602 7.09998 8.92523 7.11901 8.48C7.10783 8.17552 7.15891 7.87195 7.26913 7.58789C7.37935 7.30383 7.54639 7.04526 7.76001 6.828C8.26846 6.36373 8.92677 6.09757 9.61501 6.078V5.457C9.61501 5.12834 9.73801 4.964 9.98401 4.964C10.23 4.964 10.3567 5.12434 10.364 5.445ZM9.62001 9.464V7.22C9.33963 7.29351 9.07792 7.42538 8.85201 7.607C8.7557 7.70041 8.68113 7.81388 8.6336 7.93935C8.58608 8.06483 8.56676 8.19922 8.57701 8.333C8.56793 8.4613 8.58623 8.59007 8.63071 8.71076C8.67519 8.83144 8.74484 8.94129 8.83501 9.033C9.06682 9.22539 9.33327 9.37169 9.62001 9.464ZM10.364 11.205V13.771C10.7124 13.7175 11.0333 13.5506 11.277 13.296C11.4876 13.0705 11.6033 12.7725 11.6 12.464C11.6086 12.3177 11.585 12.1712 11.5307 12.0351C11.4764 11.8989 11.3929 11.7763 11.286 11.676C11.0142 11.4574 10.7004 11.2971 10.364 11.205Z" fill="#FFFFFF"></path></svg>