<svg xmlns:xlink="http://www.w3.org/1999/xlink" xmlns="http://www.w3.org/2000/svg" width="20" height="20" viewBox="0 0 20 20" fill="none"><path d="M19 4.90998H14.72C15.1796 4.32082 15.4152 3.58765 15.3848 2.84104C15.3544 2.09442 15.06 1.38283 14.554 0.832985C14.2817 0.564288 13.9588 0.352302 13.604 0.209312C13.2492 0.0663224 12.8695 -0.00482787 12.487 -1.534e-05C11.5503 0.01087 10.6561 0.392366 10 1.06098C9.34392 0.392366 8.44969 0.01087 7.513 -1.534e-05C7.13049 -0.00482787 6.75082 0.0663224 6.39601 0.209312C6.0412 0.352302 5.71829 0.564288 5.446 0.832985C4.94001 1.38283 4.6456 2.09442 4.61521 2.84104C4.58481 3.58765 4.82039 4.32082 5.28 4.90998H1C0.734784 4.90998 0.48043 5.01534 0.292893 5.20288C0.105357 5.39041 0 5.64477 0 5.90998L0 9.14298C0 9.4082 0.105357 9.66255 0.292893 9.85009C0.48043 10.0376 0.734784 10.143 1 10.143H2.066V15.843C2.066 16.9039 2.48743 17.9213 3.23757 18.6714C3.98772 19.4216 5.00513 19.843 6.066 19.843H13.934C14.9949 19.843 16.0123 19.4216 16.7624 18.6714C17.5126 17.9213 17.934 16.9039 17.934 15.843V10.143H19C19.2652 10.143 19.5196 10.0376 19.7071 9.85009C19.8946 9.66255 20 9.4082 20 9.14298V5.90998C20 5.64477 19.8946 5.39041 19.7071 5.20288C19.5196 5.01534 19.2652 4.90998 19 4.90998ZM10.65 3.03098V2.99898C10.6201 2.6384 10.7162 2.27861 10.922 1.98098C11.3337 1.5569 11.896 1.31221 12.487 1.29998C12.6986 1.29534 12.9091 1.33292 13.106 1.41053C13.3029 1.48814 13.4824 1.60422 13.634 1.75198C13.9595 2.14368 14.1181 2.64764 14.0754 3.15516C14.0328 3.66269 13.7923 4.13312 13.406 4.46498C13.0775 4.68044 12.6848 4.77615 12.294 4.73598H10.65C10.65 4.73598 10.644 3.49198 10.65 3.03098ZM6.366 1.75198C6.51757 1.60422 6.69706 1.48814 6.894 1.41053C7.09094 1.33292 7.30137 1.29534 7.513 1.29998C8.10395 1.31221 8.66627 1.5569 9.078 1.98098C9.28362 2.2783 9.37975 2.63772 9.35 2.99798V3.03498C9.356 3.49498 9.35 4.73498 9.35 4.73498H7.706C7.3152 4.77515 6.9225 4.67944 6.594 4.46398C6.20795 4.13215 5.96771 3.66192 5.92506 3.15464C5.88242 2.64736 6.04077 2.14362 6.366 1.75198ZM9.35 18.543H6.066C5.34992 18.543 4.66316 18.2585 4.15681 17.7522C3.65046 17.2458 3.366 16.5591 3.366 15.843V10.143H9.35V18.543ZM9.35 8.84298H1.3V6.20998H9.35V8.84298ZM16.634 15.843C16.634 16.5591 16.3495 17.2458 15.8432 17.7522C15.3368 18.2585 14.6501 18.543 13.934 18.543H10.65V10.143H16.634V15.843ZM18.7 8.84298H10.65V6.20998H18.7V8.84298Z" fill="#FFFFFF"></path></svg>