<svg xmlns:xlink="http://www.w3.org/1999/xlink" xmlns="http://www.w3.org/2000/svg" width="20" height="20" viewBox="0 0 20 20" fill="none"><path d="M18 20C18.5304 20 19.0391 19.7893 19.4142 19.4142C19.7893 19.0391 20 18.5304 20 18V8.939C20 8.47098 19.8904 8.00946 19.6802 7.59134C19.4699 7.17322 19.1647 6.8101 18.789 6.531L10.6 0.2C10.4269 0.0701779 10.2164 0 10 0C9.78363 0 9.5731 0.0701779 9.4 0.2L1.211 6.531C0.835304 6.8101 0.530118 7.17322 0.319842 7.59134C0.109566 8.00946 3.28786e-05 8.47098 0 8.939L0 18C0 18.5304 0.210714 19.0391 0.585786 19.4142C0.960859 19.7893 1.46957 20 2 20H7.872C8.13722 20 8.39157 19.8946 8.57911 19.7071C8.76664 19.5196 8.872 19.2652 8.872 19V14.5C8.872 14.3143 8.94575 14.1363 9.07703 14.005C9.2083 13.8737 9.38635 13.8 9.572 13.8H10.428C10.6137 13.8 10.7917 13.8737 10.923 14.005C11.0542 14.1363 11.128 14.3143 11.128 14.5V19C11.128 19.2652 11.2334 19.5196 11.4209 19.7071C11.6084 19.8946 11.8628 20 12.128 20H18ZM18.7 18C18.7 18.1857 18.6262 18.3637 18.495 18.495C18.3637 18.6262 18.1857 18.7 18 18.7H12.428V14.5C12.428 13.9696 12.2173 13.4609 11.8422 13.0858C11.4671 12.7107 10.9584 12.5 10.428 12.5H9.572C9.04157 12.5 8.53286 12.7107 8.15779 13.0858C7.78271 13.4609 7.572 13.9696 7.572 14.5V18.7H2C1.81435 18.7 1.6363 18.6262 1.50503 18.495C1.37375 18.3637 1.3 18.1857 1.3 18V8.939C1.3013 8.66974 1.36588 8.40456 1.48851 8.16485C1.61115 7.92514 1.78841 7.71761 2.006 7.559L10 1.379L18.014 7.574C18.2266 7.7325 18.3993 7.93841 18.5184 8.17537C18.6375 8.41233 18.6997 8.6738 18.7 8.939V18Z" fill="#FFFFFF"></path></svg>