<svg xmlns:xlink="http://www.w3.org/1999/xlink" xmlns="http://www.w3.org/2000/svg" width="20" height="20" viewBox="0 0 20 20" fill="none"><path d="M10 20C7.76861 20.0077 5.60004 19.2614 3.84602 17.882C3.7749 17.8308 3.71485 17.7658 3.66944 17.6909C3.62404 17.616 3.59423 17.5327 3.58179 17.446C3.56935 17.3592 3.57455 17.2709 3.59706 17.1862C3.61957 17.1016 3.65894 17.0223 3.71281 16.9532C3.76668 16.8841 3.83394 16.8266 3.91056 16.7842C3.98718 16.7417 4.07159 16.7151 4.15872 16.706C4.24586 16.697 4.33393 16.7056 4.41766 16.7313C4.50139 16.7571 4.57906 16.7995 4.64602 16.856C6.17169 18.0568 8.05848 18.7066 10 18.7C12.3074 18.7 14.5203 17.7834 16.1518 16.1518C17.7834 14.5203 18.7 12.3074 18.7 9.99999C18.7 7.69261 17.7834 5.47973 16.1518 3.84816C14.5203 2.2166 12.3074 1.29999 10 1.29999C8.05939 1.29331 6.17354 1.94319 4.64902 3.14399C4.51206 3.23848 4.34415 3.27703 4.17969 3.25175C4.01523 3.22647 3.86666 3.13926 3.76441 3.00799C3.66215 2.87672 3.61396 2.71133 3.62969 2.54568C3.64542 2.38003 3.72389 2.22667 3.84902 2.11699C5.60236 0.738622 7.76976 -0.00733469 10 -7.56865e-06C12.6522 -7.56865e-06 15.1957 1.05356 17.0711 2.92892C18.9465 4.80429 20 7.34783 20 9.99999C20 12.6522 18.9465 15.1957 17.0711 17.0711C15.1957 18.9464 12.6522 20 10 20Z" fill="#FFFFFF"></path><path d="M11.53 9.41001H2.33L4.539 7.40001C4.60415 7.34316 4.6573 7.2739 4.69534 7.19626C4.73338 7.11863 4.75556 7.03418 4.76056 6.94787C4.76557 6.86156 4.7533 6.77511 4.72449 6.6936C4.69567 6.61209 4.65089 6.53714 4.59275 6.47315C4.53461 6.40916 4.46429 6.35741 4.38591 6.32093C4.30753 6.28445 4.22265 6.26398 4.13626 6.2607C4.04986 6.25743 3.96368 6.27143 3.88276 6.30187C3.80185 6.33232 3.72781 6.3786 3.665 6.43801L0.213002 9.57901L0.200002 9.59101C0.154761 9.63745 0.116678 9.69036 0.0870017 9.74801C0.0751977 9.76461 0.0645076 9.78199 0.0550018 9.80001C0.0185352 9.88182 -0.000208543 9.97043 1.75009e-06 10.06C0.000220534 10.1488 0.0185972 10.2366 0.0540018 10.318C0.0640018 10.339 0.0820018 10.355 0.0930018 10.375C0.121765 10.4312 0.158849 10.4828 0.203002 10.528L0.212002 10.541L3.664 13.679C3.7267 13.7387 3.8007 13.7853 3.88165 13.816C3.96261 13.8468 4.04888 13.861 4.13542 13.8579C4.22195 13.8549 4.307 13.8345 4.38557 13.7981C4.46413 13.7617 4.53463 13.71 4.59293 13.646C4.65122 13.5819 4.69614 13.5069 4.72504 13.4253C4.75394 13.3437 4.76623 13.2571 4.76121 13.1706C4.75619 13.0842 4.73394 12.9996 4.69578 12.9219C4.65763 12.8442 4.60432 12.7748 4.539 12.718L2.331 10.71H11.531C11.6164 10.71 11.7009 10.6932 11.7797 10.6605C11.8586 10.6279 11.9303 10.58 11.9906 10.5196C12.051 10.4593 12.0989 10.3876 12.1315 10.3088C12.1642 10.2299 12.181 10.1454 12.181 10.06C12.181 9.97465 12.1642 9.89012 12.1315 9.81126C12.0989 9.7324 12.051 9.66075 11.9906 9.60039C11.9303 9.54003 11.8586 9.49215 11.7797 9.45948C11.7009 9.42682 11.6164 9.41001 11.531 9.41001H11.53Z" fill="#FFFFFF"></path></svg>