<svg xmlns:xlink="http://www.w3.org/1999/xlink" xmlns="http://www.w3.org/2000/svg" width="50" height="30" viewBox="0 0 50 30" fill="none" class="brand-image"><g clip-path="url(#clip0)" fill="none"><path d="M19.9195 17.7344C19.7755 17.7344 19.622 17.7056 19.478 17.6479L0.765061 10.2849C0.314031 10.1022 0.0069466 9.66968 0.0069466 9.17945C-0.00264978 8.68922 0.285242 8.24706 0.736272 8.05481L19.4492 0.0862126C19.7467 -0.0387473 20.0922 -0.0387473 20.3897 0.0862126L39.1026 8.05481C39.5537 8.24706 39.8415 8.68922 39.8319 9.17945C39.8224 9.66968 39.5249 10.1022 39.0738 10.2849L20.3609 17.6479C20.2169 17.7056 20.0634 17.7344 19.9195 17.7344ZM4.3733 9.13139L19.9195 15.2448L35.4656 9.13139L19.9195 2.50851L4.3733 9.13139Z" fill="#4E89FF"></path><path d="M19.9096 23.8673C19.7656 23.8673 19.6121 23.8385 19.4682 23.7808L0.755203 16.4178C0.141034 16.1871 -0.156454 15.4854 0.083456 14.8702C0.323366 14.255 1.0239 13.9474 1.63807 14.1877L19.9096 21.3778L38.1811 14.1877C38.7953 13.9474 39.4958 14.2454 39.7357 14.8702C39.9756 15.4854 39.6782 16.1871 39.0544 16.4274L20.3414 23.7904C20.2071 23.8385 20.0631 23.8673 19.9096 23.8673Z" fill="#4E89FF"></path><path d="M19.9096 30C19.7656 30 19.6121 29.9712 19.4681 29.9135L0.755181 22.5505C0.141012 22.3102 -0.166072 21.6085 0.0738377 20.9933C0.313747 20.3781 1.01428 20.0705 1.62845 20.3108L19.9 27.5008L38.1715 20.3108C38.7857 20.0705 39.4862 20.3685 39.7261 20.9933C39.966 21.6085 39.6685 22.3102 39.0448 22.5505L20.3318 29.9135C20.2071 29.9712 20.0631 30 19.9096 30Z" fill="#4E89FF"></path></g><defs><clipPath id="clip0"><rect width="170" height="30" fill="white"></rect></clipPath></defs></svg>